<svg width="34" height="30" viewBox="0 0 24 24" fill="none" stroke="#ad3e04" stroke-width="2" stroke-linecap="round" stroke-linejoin="round" xmlns="http://www.w3.org/2000/svg">
  <path d="M22.54 6.42a2.78 2.78 0 0 0-1.95-2C18.88 4 12 4 12 4s-6.88 0-8.59.42a2.78 2.78 0 0 0-1.95 2A29.94 29.94 0 0 0 1 12a29.94 29.94 0 0 0 .46 5.58 2.78 2.78 0 0 0 1.95 2C5.12 20 12 20 12 20s6.88 0 8.59-.42a2.78 2.78 0 0 0 1.95-2A29.94 29.94 0 0 0 23 12a29.94 29.94 0 0 0-.46-5.58z"/>
  <polygon points="9.75 15.02 15.5 12 9.75 8.98 9.75 15.02"/>
</svg>
